<?xml version="1.0" encoding="UTF-8"?>
<svg width="240px" height="240px" viewBox="0 0 240 240" version="1.1" xmlns="http://www.w3.org/2000/svg" xmlns:xlink="http://www.w3.org/1999/xlink">
    <title>eventbus-logo-transparent</title>
    <g id="eventbus-logo-transparent" stroke="none" stroke-width="1" fill="none" fill-rule="evenodd">
        <g id="Group-12" transform="translate(50.000000, 50.000000)">
            <rect id="Rectangle-Copy-55" fill="#21388B" x="0" y="0" width="63" height="63"></rect>
            <path d="M77,63 L77,0 L94.5,0 C111.89697,0 126,14.1030304 126,31.5 C126,48.8969696 111.89697,63 94.5,63 L94.5,63 L77,63 Z" id="Combined-Shape-Copy-66" fill="#375DE7"></path>
            <path d="M77,140 L77,77 L108.5,77 C125.89697,77 140,91.1030304 140,108.5 C140,108.898751 139.992591,109.295771 139.977903,109.69093 C139.992625,110.069406 140,110.450508 140,110.833333 C140,126.941639 126.941639,140 110.833333,140 L110.833333,140 L110.833599,139.91487 C110.0631,139.971292 109.284902,140 108.5,140 L108.5,140 L77,140 Z" id="Combined-Shape-Copy-67" fill="#375DE7"></path>
            <rect id="Rectangle-Copy-56" fill="#21388B" x="0" y="77" width="63" height="63"></rect>
        </g>
    </g>
</svg>